<?xml version="1.0" encoding="UTF-8" standalone="no"?>
<svg
   version="1.0"
   width="2339.000000pt"
   height="1654.000000pt"
   viewBox="0 0 2339.000000 1654.000000"
   preserveAspectRatio="xMidYMid meet"
   id="svg854"
   sodipodi:docname="favicon2.svg"
   inkscape:version="1.1.1 (3bf5ae0d25, 2021-09-20)"
   xmlns:inkscape="http://www.inkscape.org/namespaces/inkscape"
   xmlns:sodipodi="http://sodipodi.sourceforge.net/DTD/sodipodi-0.dtd"
   xmlns="http://www.w3.org/2000/svg"
   xmlns:svg="http://www.w3.org/2000/svg">
  <defs
     id="defs858" />
  <sodipodi:namedview
     id="namedview856"
     pagecolor="#ffffff"
     bordercolor="#666666"
     borderopacity="1.0"
     inkscape:pageshadow="2"
     inkscape:pageopacity="0.0"
     inkscape:pagecheckerboard="0"
     inkscape:document-units="pt"
     showgrid="false"
     inkscape:zoom="0.17752418"
     inkscape:cx="509.7897"
     inkscape:cy="977.33163"
     inkscape:window-width="1920"
     inkscape:window-height="1001"
     inkscape:window-x="-9"
     inkscape:window-y="-9"
     inkscape:window-maximized="1"
     inkscape:current-layer="svg854" />
  <g
     transform="matrix(0.20537334,0,0,-0.20537334,-794.13055,2598.2142)"
     fill="#000000"
     stroke="none"
     id="g852">
    <path
       d="m 13184,12582 c -33,-16 -92,-49 -130,-73 l -69,-44 h -590 c -543,0 -593,1 -622,18 -43,23 -86,22 -212,-8 -163,-39 -178,-44 -186,-62 -7,-20 18,-43 47,-43 9,0 22,-9 28,-21 7,-11 14,-18 17,-15 10,9 32,-27 33,-51 0,-17 6,-23 23,-23 31,0 331,-19 387,-24 25,-3 106,-10 180,-16 179,-15 200,-19 207,-36 10,-28 -318,-414 -381,-446 -36,-19 -65,-23 -246,-30 -464,-18 -554,-28 -526,-55 4,-4 162,-7 352,-5 329,3 344,2 344,-16 0,-26 -126,-180 -175,-214 -43,-30 -97,-44 -295,-78 -155,-27 -192,-39 -207,-70 -20,-39 -11,-48 136,-138 l 25,-15 -50,-24 c -88,-44 -114,-66 -114,-95 0,-28 49,-78 76,-78 22,0 17,-11 -33,-75 -44,-57 -415,-503 -458,-551 -41,-46 -54,-48 -395,-55 -203,-5 -367,-13 -437,-23 -62,-9 -164,-23 -225,-31 -125,-17 -273,-40 -543,-86 -151,-25 -190,-36 -240,-63 -98,-53 -88,-78 55,-129 188,-68 451,-120 685,-136 323,-23 433,-35 429,-45 -2,-6 -53,-22 -112,-35 -119,-27 -359,-94 -497,-139 -497,-162 -1079,-271 -1850,-347 -198,-20 -438,-59 -609,-101 -158,-38 -232,-42 -468,-23 -149,12 -187,9 -184,-18 1,-20 -25,-29 -279,-89 -104,-24 -215,-51 -245,-59 -30,-8 -129,-33 -220,-56 -205,-50 -386,-103 -465,-135 -33,-13 -112,-38 -175,-55 -132,-35 -160,-45 -160,-57 0,-5 69,-26 153,-47 83,-20 199,-53 257,-72 122,-40 477,-140 565,-159 33,-7 134,-27 225,-43 91,-16 230,-44 310,-61 119,-26 171,-32 290,-35 123,-2 406,-35 431,-51 3,-2 51,-10 105,-19 55,-8 149,-24 209,-35 125,-23 343,-54 520,-76 66,-8 156,-21 200,-28 44,-8 107,-17 140,-20 62,-7 247,-34 580,-87 270,-43 338,-61 770,-199 227,-73 407,-119 493,-127 82,-8 90,-23 11,-23 -33,0 -132,-7 -218,-15 -86,-8 -205,-20 -264,-26 -60,-5 -141,-16 -180,-24 -40,-8 -110,-21 -157,-30 -134,-26 -283,-75 -387,-127 -88,-44 93,-123 442,-192 341,-67 544,-86 935,-86 151,0 300,-4 330,-9 151,-25 245,-91 363,-256 44,-61 118,-155 166,-210 109,-126 161,-190 161,-199 0,-3 -6,-6 -13,-6 -19,0 -77,-63 -77,-83 0,-11 28,-36 73,-64 39,-25 76,-49 81,-54 5,-4 -19,-21 -52,-38 -99,-50 -130,-103 -79,-135 12,-8 117,-31 232,-51 116,-20 218,-38 227,-41 17,-5 220,-235 214,-241 -2,-2 -150,-7 -329,-11 -249,-5 -329,-10 -339,-20 -11,-11 -9,-16 7,-28 16,-12 62,-13 290,-8 l 270,6 80,-26 c 136,-44 229,-122 337,-281 34,-49 83,-114 110,-144 27,-29 47,-55 45,-57 -2,-2 -95,-10 -208,-19 -112,-8 -247,-19 -299,-24 -52,-6 -135,-13 -185,-16 -49,-3 -98,-9 -107,-11 -26,-8 -22,-31 8,-57 l 26,-22 -92,-18 c -51,-9 -99,-21 -108,-26 -29,-16 37,-44 200,-85 l 154,-39 49,24 50,23 600,3 c 471,3 605,1 621,-9 12,-7 48,-34 80,-61 33,-26 81,-54 107,-63 57,-19 225,-21 267,-4 28,12 50,49 80,136 17,50 17,51 -5,107 -28,68 -59,113 -88,129 -12,6 -57,14 -100,18 -42,4 -79,9 -82,11 -2,3 -5,110 -7,238 l -3,234 52,17 c 101,33 107,59 17,75 l -59,10 -5,222 c -4,180 -8,225 -20,237 -12,12 -48,15 -165,17 -82,1 -156,4 -163,7 -7,2 -24,29 -37,58 -13,30 -26,54 -29,54 -3,0 -15,-27 -27,-60 l -22,-60 h -443 c -340,0 -445,3 -450,12 -11,17 -18,520 -10,602 7,64 8,65 61,101 29,21 56,47 59,59 3,11 6,235 6,496 v 475 l -60,55 -61,55 -2,1510 c -1,831 2,1531 6,1558 l 8,47 h 495 494 v -370 -370 l 173,2 172,3 v 615 c 0,338 1,627 3,643 2,25 5,27 51,27 65,0 111,17 111,41 0,20 -9,23 -109,43 l -56,11 -3,243 -2,242 h 83 c 79,0 85,1 114,30 34,33 113,159 113,179 0,22 -60,128 -87,153 -22,21 -35,23 -141,26 -112,3 -120,2 -178,-26 z"
       id="path842" />
    <path
       d="m 12288,10900 c -59,-3 -112,-10 -118,-16 -8,-8 -10,-310 -8,-1081 2,-889 5,-1073 17,-1086 12,-15 43,-17 266,-17 220,0 254,2 266,16 11,13 13,99 14,431 0,345 2,415 14,422 37,23 739,27 761,5 5,-5 11,-199 13,-431 3,-231 8,-426 11,-432 5,-8 90,-11 265,-11 237,0 259,1 274,18 16,17 17,107 17,1089 0,854 -3,1073 -13,1081 -17,15 -500,16 -527,2 -19,-10 -20,-22 -21,-373 -1,-199 -4,-375 -8,-392 l -6,-30 h -385 -385 l -3,391 c -2,297 -5,394 -15,402 -14,12 -275,19 -429,12 z m 1531,-338 c -4,-45 2,-61 24,-64 31,-4 29,-33 -3,-33 -22,0 -25,-4 -22,-30 2,-16 9,-36 15,-44 9,-12 9,-13 0,-7 -10,5 -13,-5 -13,-43 0,-27 -4,-52 -8,-55 -10,-6 -62,58 -62,76 0,8 6,20 13,26 6,7 13,36 14,65 1,48 8,91 19,125 5,18 25,4 23,-16 z m -1354,-72 c -3,-24 0,-30 15,-30 10,0 21,6 23,13 3,6 6,3 6,-9 1,-12 -10,-33 -24,-48 -14,-15 -25,-29 -25,-32 0,-13 38,-53 44,-47 3,3 6,1 6,-5 0,-21 -21,-24 -35,-6 -13,18 -14,18 -20,2 -4,-10 -4,-25 -1,-34 5,-13 9,-14 21,-4 12,10 16,8 24,-11 6,-18 5,-26 -6,-32 -10,-6 -12,-18 -8,-37 4,-19 -1,-42 -14,-69 -21,-40 -21,-40 -1,-51 13,-7 20,-21 20,-38 0,-35 26,-73 45,-66 18,7 18,5 1,-36 -10,-24 -15,-28 -19,-16 -4,9 -14,16 -23,16 -8,0 -14,-3 -12,-7 33,-69 41,-76 52,-48 11,29 23,14 22,-27 -1,-42 0,-43 30,-43 22,0 30,-4 26,-13 -3,-8 9,-6 32,7 55,31 102,25 62,-8 -7,-6 -17,-26 -21,-44 -6,-30 -7,-31 -15,-9 -11,26 -14,27 -45,6 -21,-14 -24,-14 -33,2 -5,9 -23,18 -40,19 -28,2 -30,0 -21,-23 12,-32 5,-38 -26,-24 -16,7 -25,8 -25,1 0,-5 6,-12 14,-15 12,-4 9,-15 -14,-51 -29,-46 -29,-46 -10,-73 35,-49 38,-129 5,-116 -23,8 -30,-33 -8,-49 14,-11 16,-17 7,-32 -6,-10 -15,-38 -19,-61 -4,-23 -11,-39 -16,-36 -6,3 -7,19 -4,35 6,25 3,29 -21,35 l -28,7 28,22 c 27,22 28,23 11,49 -16,24 -16,29 -1,73 l 16,48 -30,28 c -35,33 -37,37 -12,30 32,-8 44,20 37,81 -5,38 -12,56 -21,56 -8,0 -14,7 -14,15 0,8 4,15 9,15 15,0 24,39 13,53 -7,8 -6,41 3,99 8,52 10,112 6,147 -4,32 -4,67 0,77 4,11 8,34 8,53 1,28 -2,33 -18,28 -15,-3 -19,0 -18,14 1,13 7,17 19,13 15,-5 18,1 18,39 0,38 -4,46 -22,51 l -23,7 23,11 c 24,12 32,63 10,70 -6,2 -13,15 -15,29 -2,18 -1,20 6,9 5,-8 7,-18 5,-22 -3,-4 0,-8 5,-8 6,0 12,7 12,15 1,8 3,20 4,25 1,6 3,13 4,16 0,3 5,3 10,-1 5,-3 8,-19 6,-35 z m 1405,-156 c 0,-13 -4,-24 -10,-24 -5,0 -10,14 -10,31 0,17 4,28 10,24 6,-3 10,-17 10,-31 z m -53,-85 c 7,-6 17,-8 22,-5 5,4 12,2 15,-3 3,-5 -6,-12 -22,-16 l -27,-7 29,-15 28,-15 -23,-12 c -36,-18 -35,-43 3,-66 l 33,-20 h -27 c -18,0 -28,-5 -28,-14 0,-8 -3,-22 -6,-30 -5,-12 -2,-15 10,-10 9,3 16,1 16,-5 0,-7 -6,-14 -14,-17 -17,-6 -22,-129 -5,-139 7,-5 6,-12 -3,-22 -10,-13 -9,-14 7,-12 22,4 28,-7 19,-34 -4,-14 -9,-15 -19,-7 -22,18 -30,-8 -9,-31 15,-17 16,-22 5,-29 -17,-10 -7,-40 14,-40 23,0 18,-46 -7,-71 l -23,-22 28,7 c 25,6 28,4 25,-16 -2,-17 -9,-22 -25,-21 -16,2 -21,-2 -17,-11 3,-8 0,-24 -6,-36 -15,-28 -5,-54 25,-70 l 25,-14 -30,-12 c -36,-15 -38,-30 -8,-61 16,-17 18,-23 7,-23 -8,0 -15,-8 -15,-17 -1,-10 -2,-22 -4,-28 -1,-5 -2,-25 -1,-42 1,-38 21,-45 21,-9 0,14 4,27 10,31 5,3 8,-14 7,-42 -2,-40 -5,-47 -21,-45 -14,3 -16,-1 -11,-17 6,-20 -19,-71 -35,-71 -14,0 -40,30 -40,46 0,8 6,14 14,14 27,0 37,25 25,61 -7,19 -18,41 -25,50 -20,22 -17,29 9,26 18,-2 23,4 25,27 3,21 -5,37 -29,62 -25,25 -29,34 -16,34 17,0 47,47 47,75 0,8 -11,20 -24,25 -33,12 -53,48 -31,56 23,9 18,44 -10,68 l -25,22 30,22 c 36,27 37,40 9,76 l -21,27 -23,-21 c -13,-12 -21,-28 -18,-36 7,-18 -11,-18 -26,0 -9,11 -9,23 3,51 l 15,36 -34,15 c -25,10 -35,20 -35,37 0,16 3,18 9,8 5,-7 15,-11 22,-9 8,3 20,-2 27,-11 11,-14 12,-11 6,17 l -6,34 26,-17 c 15,-10 33,-14 43,-10 16,6 16,8 -4,25 -28,23 -29,33 -3,25 14,-4 20,-2 20,9 0,8 -4,18 -10,21 -16,10 -11,25 8,25 18,0 42,37 42,62 0,6 -8,20 -17,31 -18,19 -27,70 -11,61 13,-8 9,21 -4,34 -9,9 -8,16 6,30 16,19 16,20 -5,25 -19,5 -20,9 -10,21 13,15 49,8 78,-15 z m -1408,-61 c 1,-5 -3,-8 -8,-8 -12,0 -22,30 -14,43 6,10 20,-13 22,-35 z m 281,-298 c 12,-8 11,-10 -7,-10 -12,0 -25,5 -28,10 -8,13 15,13 35,0 z m 529,-22 c 0,-30 -1,-31 -9,-10 -5,12 -17,22 -27,22 -15,0 -16,2 -3,10 28,18 40,11 39,-22 z m 202,2 c 32,-7 32,-8 7,-9 -22,-1 -28,-6 -28,-23 -1,-23 -1,-23 -15,2 -16,27 -21,76 -6,52 5,-8 24,-18 42,-22 z m -807,-15 c -4,-8 -8,-15 -10,-15 -2,0 -4,7 -4,15 0,8 4,15 10,15 5,0 7,-7 4,-15 z m 721,5 c 3,-5 -1,-10 -10,-10 -9,0 -13,5 -10,10 3,6 8,10 10,10 2,0 7,-4 10,-10 z m -275,-10 c 0,-5 -2,-10 -4,-10 -3,0 -8,5 -11,10 -3,6 -1,10 4,10 6,0 11,-4 11,-10 z m -142,-12 c 7,-9 5,-19 -8,-35 -10,-13 -21,-23 -24,-23 -9,0 -7,38 2,43 4,2 0,2 -8,-1 -8,-3 -24,-5 -36,-6 -11,-1 -28,-7 -37,-15 -10,-7 -17,-9 -17,-3 0,13 19,27 55,40 41,14 61,14 73,0 z m 602,-3 c 0,-8 -6,-15 -14,-15 -7,0 -19,7 -26,15 -11,13 -8,15 14,15 16,0 26,-5 26,-15 z m -550,-15 c 0,-5 -5,-10 -11,-10 -5,0 -7,5 -4,10 3,6 8,10 11,10 2,0 4,-4 4,-10 z m 195,-10 c 8,-13 -15,-13 -35,0 -12,8 -11,10 7,10 12,0 25,-4 28,-10 z m -775,-90 c 0,-5 -5,-10 -11,-10 -5,0 -7,5 -4,10 3,6 8,10 11,10 2,0 4,-4 4,-10 z m 1327,-86 c -3,-3 -12,-4 -19,-1 -8,3 -5,6 6,6 11,1 17,-2 13,-5 z m -1212,-254 c 3,-5 -1,-10 -9,-10 -9,0 -16,5 -16,10 0,6 4,10 9,10 6,0 13,-4 16,-10 z m -5,-100 c 0,-5 -4,-10 -10,-10 -5,0 -10,5 -10,10 0,6 5,10 10,10 6,0 10,-4 10,-10 z m 20,-29 c 0,-6 -4,-13 -10,-16 -5,-3 -10,1 -10,9 0,9 5,16 10,16 6,0 10,-4 10,-9 z m -55,-43 c -3,-39 -25,-33 -25,7 0,30 3,35 13,26 8,-6 13,-21 12,-33 z m 52,-54 c -3,-3 -12,-4 -19,-1 -8,3 -5,6 6,6 11,1 17,-2 13,-5 z m -52,-43 c 3,-5 1,-12 -5,-16 -5,-3 -7,-17 -4,-31 9,-36 -3,-74 -25,-74 -25,0 -38,70 -16,86 9,7 13,19 9,28 -4,11 0,16 14,16 12,0 23,-4 27,-9 z m 1390,-21 c 3,-6 -5,-14 -19,-20 -28,-10 -36,-40 -11,-40 8,0 15,-4 15,-9 0,-5 3,-16 6,-24 3,-10 -3,-18 -18,-22 -62,-18 -58,-19 -53,22 11,93 15,103 46,103 15,0 31,-5 34,-10 z m -1368,-152 c -3,-8 -6,-5 -6,6 -1,11 2,17 5,13 3,-3 4,-12 1,-19 z"
       id="path844" />
    <path
       d="m 13810,9659 c 0,-5 5,-7 10,-4 6,3 10,8 10,11 0,2 -4,4 -10,4 -5,0 -10,-5 -10,-11 z"
       id="path846" />
    <path
       d="m 13770,9610 c 0,-5 5,-10 11,-10 5,0 7,5 4,10 -3,6 -8,10 -11,10 -2,0 -4,-4 -4,-10 z"
       id="path848" />
    <path
       d="m 12148,8420 c -19,-15 -20,-20 -9,-34 11,-13 11,-22 2,-42 -6,-14 -11,-75 -11,-143 0,-114 1,-119 29,-157 15,-22 33,-55 39,-74 12,-38 20,-199 10,-215 -12,-20 -2,-519 11,-546 11,-22 11,-31 -1,-50 -15,-24 -15,-71 -5,-331 l 4,-106 -43,-33 -44,-33 v -76 c 0,-43 5,-91 11,-108 7,-22 8,-42 1,-64 -6,-18 -13,-50 -17,-70 -10,-63 1,-65 375,-64 l 324,1 -3,95 c -3,106 -3,106 5,174 5,42 4,48 -10,43 -9,-4 -16,-2 -16,3 0,6 4,10 10,10 5,0 12,11 16,25 5,19 -3,37 -31,75 -20,27 -38,64 -40,81 -2,17 -9,45 -15,62 -13,41 -29,306 -19,332 4,11 13,53 19,94 l 12,73 19,-28 c 10,-15 16,-32 13,-36 -6,-10 28,-165 56,-253 10,-33 26,-91 35,-130 9,-38 26,-82 38,-99 14,-19 20,-42 19,-65 -3,-39 9,-98 57,-286 45,-175 31,-160 147,-160 77,0 98,3 96,13 -1,7 7,27 18,43 12,16 30,71 41,125 10,53 21,100 24,105 3,5 1,18 -5,30 -9,16 -8,24 4,38 9,10 16,22 16,27 0,5 9,27 20,49 11,22 20,54 20,73 0,18 11,66 25,105 36,106 45,151 54,260 4,54 12,102 17,105 11,8 46,60 55,82 3,8 7,-82 9,-200 1,-118 3,-226 3,-240 1,-14 0,-55 -1,-92 -2,-60 -5,-71 -34,-104 -18,-20 -34,-44 -36,-53 -2,-9 -5,-87 -8,-174 -3,-143 -2,-158 14,-163 9,-3 27,-11 39,-16 13,-7 57,-9 107,-6 49,3 88,2 94,-4 13,-13 151,-19 173,-7 12,6 20,5 25,-2 4,-8 24,-9 58,-4 43,5 107,11 176,14 8,1 31,-2 52,-5 52,-9 71,23 69,114 -3,94 -2,111 5,159 5,34 3,44 -10,49 -19,7 -21,35 -4,52 10,10 5,19 -20,42 -18,16 -32,30 -32,32 -1,2 -5,49 -9,106 -5,57 -12,106 -15,109 -3,3 -12,0 -21,-7 -23,-19 -18,0 6,27 12,12 22,35 21,50 0,15 -1,85 -1,156 0,70 -5,136 -11,147 -7,12 -7,21 0,25 6,4 10,103 9,268 -1,308 4,341 59,415 23,32 25,42 27,193 4,219 22,203 -232,208 -187,4 -301,5 -340,2 -10,-1 -58,-2 -108,-2 -49,0 -101,-5 -114,-12 -14,-7 -37,-37 -52,-67 -31,-61 -80,-257 -73,-287 3,-11 -3,-35 -14,-54 -11,-19 -27,-64 -37,-101 -17,-63 -17,-69 -1,-92 9,-14 16,-29 16,-33 0,-4 -4,-2 -8,5 -21,32 -50,-12 -56,-83 -2,-23 -36,-76 -36,-56 0,7 -6,11 -15,7 -10,-4 -15,1 -14,17 0,12 -9,63 -21,112 -12,50 -24,110 -26,135 -3,25 -14,61 -24,81 -11,20 -17,39 -14,42 7,6 -13,110 -28,150 -8,21 -15,26 -30,21 -16,-5 -19,-1 -18,18 1,12 2,25 1,28 -1,3 -3,35 -4,72 -1,37 -7,72 -14,79 -22,22 -96,26 -464,27 -339,0 -371,-2 -391,-18 z"
       id="path850" />
  </g>
</svg>
