{
    "asset" : {
        "generator" : "Khronos glTF Blender I/O v1.7.33",
        "version" : "2.0"
    },
    "scene" : 0,
    "scenes" : [
        {
            "name" : "Scene",
            "nodes" : [
                0
            ]
        }
    ],
    "nodes" : [
        {
            "mesh" : 0,
            "name" : "AIM-9 SIDEWINDER",
            "rotation" : [
                0.6532815098762512,
                0.6532815098762512,
                -0.27059805393218994,
                0.27059799432754517
            ],
            "scale" : [
                0.006814554799348116,
                0.006814554799348116,
                0.006814554799348116
            ],
            "translation" : [
                -2.1769840717315674,
                -0.6175855398178101,
                -0.6368645429611206
            ]
        }
    ],
    "materials" : [
        {
            "doubleSided" : true,
            "name" : "wire_177026088",
            "pbrMetallicRoughness" : {
                "baseColorFactor" : [
                    0.800000011920929,
                    0.800000011920929,
                    0.800000011920929,
                    1
                ],
                "metallicFactor" : 0,
                "roughnessFactor" : 0.5
            }
        },
        {
            "doubleSided" : true,
            "name" : "wire_214228153",
            "pbrMetallicRoughness" : {
                "baseColorFactor" : [
                    0.800000011920929,
                    0.800000011920929,
                    0.800000011920929,
                    1
                ],
                "metallicFactor" : 0,
                "roughnessFactor" : 0.5
            }
        },
        {
            "doubleSided" : true,
            "name" : "wire_196088225",
            "pbrMetallicRoughness" : {
                "baseColorFactor" : [
                    0.800000011920929,
                    0.800000011920929,
                    0.800000011920929,
                    1
                ],
                "metallicFactor" : 0,
                "roughnessFactor" : 0.5
            }
        },
        {
            "doubleSided" : true,
            "name" : "wire_229166215",
            "pbrMetallicRoughness" : {
                "baseColorFactor" : [
                    0.800000011920929,
                    0.800000011920929,
                    0.800000011920929,
                    1
                ],
                "metallicFactor" : 0,
                "roughnessFactor" : 0.5
            }
        },
        {
            "doubleSided" : true,
            "name" : "wire_134110008",
            "pbrMetallicRoughness" : {
                "baseColorFactor" : [
                    0.800000011920929,
                    0.800000011920929,
                    0.800000011920929,
                    1
                ],
                "metallicFactor" : 0,
                "roughnessFactor" : 0.5
            }
        }
    ],
    "meshes" : [
        {
            "name" : "AIM-9 SIDEWINDER",
            "primitives" : [
                {
                    "attributes" : {
                        "POSITION" : 0,
                        "NORMAL" : 1,
                        "TEXCOORD_0" : 2
                    },
                    "indices" : 3,
                    "material" : 0
                },
                {
                    "attributes" : {
                        "POSITION" : 4,
                        "NORMAL" : 5,
                        "TEXCOORD_0" : 6
                    },
                    "indices" : 7,
                    "material" : 1
                },
                {
                    "attributes" : {
                        "POSITION" : 8,
                        "NORMAL" : 9,
                        "TEXCOORD_0" : 10
                    },
                    "indices" : 11,
                    "material" : 2
                },
                {
                    "attributes" : {
                        "POSITION" : 12,
                        "NORMAL" : 13,
                        "TEXCOORD_0" : 14
                    },
                    "indices" : 15,
                    "material" : 3
                },
                {
                    "attributes" : {
                        "POSITION" : 16,
                        "NORMAL" : 17,
                        "TEXCOORD_0" : 18
                    },
                    "indices" : 19,
                    "material" : 4
                }
            ]
        }
    ],
    "accessors" : [
        {
            "bufferView" : 0,
            "componentType" : 5126,
            "count" : 1206,
            "max" : [
                8.292499542236328,
                552.378173828125,
                -120.15660095214844
            ],
            "min" : [
                -11.805700302124023,
                120.67680358886719,
                -140.46560668945312
            ],
            "type" : "VEC3"
        },
        {
            "bufferView" : 1,
            "componentType" : 5126,
            "count" : 1206,
            "type" : "VEC3"
        },
        {
            "bufferView" : 2,
            "componentType" : 5126,
            "count" : 1206,
            "type" : "VEC2"
        },
        {
            "bufferView" : 3,
            "componentType" : 5123,
            "count" : 4716,
            "type" : "SCALAR"
        },
        {
            "bufferView" : 4,
            "componentType" : 5126,
            "count" : 1018,
            "max" : [
                42.6869010925293,
                137.2696075439453,
                -84.75299835205078
            ],
            "min" : [
                -46.89039993286133,
                125.22260284423828,
                -174.71629333496094
            ],
            "type" : "VEC3"
        },
        {
            "bufferView" : 5,
            "componentType" : 5126,
            "count" : 1018,
            "type" : "VEC3"
        },
        {
            "bufferView" : 6,
            "componentType" : 5126,
            "count" : 1018,
            "type" : "VEC2"
        },
        {
            "bufferView" : 7,
            "componentType" : 5123,
            "count" : 2640,
            "type" : "SCALAR"
        },
        {
            "bufferView" : 8,
            "componentType" : 5126,
            "count" : 763,
            "max" : [
                41.13119888305664,
                514.2025756835938,
                -86.66100311279297
            ],
            "min" : [
                -45.292301177978516,
                486.0841979980469,
                -173.92730712890625
            ],
            "type" : "VEC3"
        },
        {
            "bufferView" : 9,
            "componentType" : 5126,
            "count" : 763,
            "type" : "VEC3"
        },
        {
            "bufferView" : 10,
            "componentType" : 5126,
            "count" : 763,
            "type" : "VEC2"
        },
        {
            "bufferView" : 11,
            "componentType" : 5123,
            "count" : 1584,
            "type" : "SCALAR"
        },
        {
            "bufferView" : 12,
            "componentType" : 5126,
            "count" : 588,
            "max" : [
                40.39860153198242,
                221.6591033935547,
                -87.04129791259766
            ],
            "min" : [
                -44.60210037231445,
                125.22799682617188,
                -172.42799377441406
            ],
            "type" : "VEC3"
        },
        {
            "bufferView" : 13,
            "componentType" : 5126,
            "count" : 588,
            "type" : "VEC3"
        },
        {
            "bufferView" : 14,
            "componentType" : 5126,
            "count" : 588,
            "type" : "VEC2"
        },
        {
            "bufferView" : 15,
            "componentType" : 5123,
            "count" : 1632,
            "type" : "SCALAR"
        },
        {
            "bufferView" : 16,
            "componentType" : 5126,
            "count" : 47,
            "max" : [
                3.151599884033203,
                557.4735717773438,
                -124.57520294189453
            ],
            "min" : [
                -7.3933000564575195,
                552.205810546875,
                -135.2624969482422
            ],
            "type" : "VEC3"
        },
        {
            "bufferView" : 17,
            "componentType" : 5126,
            "count" : 47,
            "type" : "VEC3"
        },
        {
            "bufferView" : 18,
            "componentType" : 5126,
            "count" : 47,
            "type" : "VEC2"
        },
        {
            "bufferView" : 19,
            "componentType" : 5123,
            "count" : 180,
            "type" : "SCALAR"
        }
    ],
    "bufferViews" : [
        {
            "buffer" : 0,
            "byteLength" : 14472,
            "byteOffset" : 0
        },
        {
            "buffer" : 0,
            "byteLength" : 14472,
            "byteOffset" : 14472
        },
        {
            "buffer" : 0,
            "byteLength" : 9648,
            "byteOffset" : 28944
        },
        {
            "buffer" : 0,
            "byteLength" : 9432,
            "byteOffset" : 38592
        },
        {
            "buffer" : 0,
            "byteLength" : 12216,
            "byteOffset" : 48024
        },
        {
            "buffer" : 0,
            "byteLength" : 12216,
            "byteOffset" : 60240
        },
        {
            "buffer" : 0,
            "byteLength" : 8144,
            "byteOffset" : 72456
        },
        {
            "buffer" : 0,
            "byteLength" : 5280,
            "byteOffset" : 80600
        },
        {
            "buffer" : 0,
            "byteLength" : 9156,
            "byteOffset" : 85880
        },
        {
            "buffer" : 0,
            "byteLength" : 9156,
            "byteOffset" : 95036
        },
        {
            "buffer" : 0,
            "byteLength" : 6104,
            "byteOffset" : 104192
        },
        {
            "buffer" : 0,
            "byteLength" : 3168,
            "byteOffset" : 110296
        },
        {
            "buffer" : 0,
            "byteLength" : 7056,
            "byteOffset" : 113464
        },
        {
            "buffer" : 0,
            "byteLength" : 7056,
            "byteOffset" : 120520
        },
        {
            "buffer" : 0,
            "byteLength" : 4704,
            "byteOffset" : 127576
        },
        {
            "buffer" : 0,
            "byteLength" : 3264,
            "byteOffset" : 132280
        },
        {
            "buffer" : 0,
            "byteLength" : 564,
            "byteOffset" : 135544
        },
        {
            "buffer" : 0,
            "byteLength" : 564,
            "byteOffset" : 136108
        },
        {
            "buffer" : 0,
            "byteLength" : 376,
            "byteOffset" : 136672
        },
        {
            "buffer" : 0,
            "byteLength" : 360,
            "byteOffset" : 137048
        }
    ],
    "buffers" : [
        {
            "byteLength" : 137408,
            "uri" : "data:application/octet-stream;base64,"
        }
    ]
}
