{
    "asset" : {
        "generator" : "Khronos glTF Blender I/O v1.7.33",
        "version" : "2.0"
    },
    "scene" : 0,
    "scenes" : [
        {
            "name" : "Scene",
            "nodes" : [
                0
            ]
        }
    ],
    "nodes" : [
        {
            "mesh" : 0,
            "name" : "Mk 82 Snakeye",
            "rotation" : [
                0.7071068286895752,
                0,
                0,
                0.7071067094802856
            ]
        }
    ],
    "materials" : [
        {
            "doubleSided" : true,
            "name" : "_2_Steel",
            "pbrMetallicRoughness" : {
                "baseColorFactor" : [
                    0.800000011920929,
                    0.800000011920929,
                    0.800000011920929,
                    1
                ],
                "metallicFactor" : 0,
                "roughnessFactor" : 0.5
            }
        },
        {
            "doubleSided" : true,
            "name" : "_2_Aluminum",
            "pbrMetallicRoughness" : {
                "baseColorFactor" : [
                    0.800000011920929,
                    0.800000011920929,
                    0.800000011920929,
                    1
                ],
                "metallicFactor" : 0,
                "roughnessFactor" : 0.5
            }
        },
        {
            "doubleSided" : true,
            "name" : "_2_Body",
            "pbrMetallicRoughness" : {
                "baseColorFactor" : [
                    0.800000011920929,
                    0.800000011920929,
                    0.800000011920929,
                    1
                ],
                "metallicFactor" : 0,
                "roughnessFactor" : 0.5
            }
        },
        {
            "doubleSided" : true,
            "name" : "_2_Tail",
            "pbrMetallicRoughness" : {
                "baseColorFactor" : [
                    0.800000011920929,
                    0.800000011920929,
                    0.800000011920929,
                    1
                ],
                "metallicFactor" : 0,
                "roughnessFactor" : 0.5
            }
        }
    ],
    "meshes" : [
        {
            "name" : "Mk 82 Snakeye",
            "primitives" : [
                {
                    "attributes" : {
                        "POSITION" : 0,
                        "NORMAL" : 1,
                        "TEXCOORD_0" : 2
                    },
                    "indices" : 3,
                    "material" : 0
                },
                {
                    "attributes" : {
                        "POSITION" : 4,
                        "NORMAL" : 5,
                        "TEXCOORD_0" : 6
                    },
                    "indices" : 7,
                    "material" : 1
                },
                {
                    "attributes" : {
                        "POSITION" : 8,
                        "NORMAL" : 9,
                        "TEXCOORD_0" : 10
                    },
                    "indices" : 11,
                    "material" : 2
                },
                {
                    "attributes" : {
                        "POSITION" : 12,
                        "NORMAL" : 13,
                        "TEXCOORD_0" : 14
                    },
                    "indices" : 15,
                    "material" : 3
                }
            ]
        }
    ],
    "accessors" : [
        {
            "bufferView" : 0,
            "componentType" : 5126,
            "count" : 2668,
            "max" : [
                0.06680010259151459,
                -0.5232939720153809,
                -0.05924149975180626
            ],
            "min" : [
                -0.06718719750642776,
                -1.566480040550232,
                -0.2593899965286255
            ],
            "type" : "VEC3"
        },
        {
            "bufferView" : 1,
            "componentType" : 5126,
            "count" : 2668,
            "type" : "VEC3"
        },
        {
            "bufferView" : 2,
            "componentType" : 5126,
            "count" : 2668,
            "type" : "VEC2"
        },
        {
            "bufferView" : 3,
            "componentType" : 5123,
            "count" : 7980,
            "type" : "SCALAR"
        },
        {
            "bufferView" : 4,
            "componentType" : 5126,
            "count" : 3703,
            "max" : [
                0.07388749718666077,
                0.048299599438905716,
                -0.05227139964699745
            ],
            "min" : [
                -0.07388719916343689,
                -1.681380033493042,
                -0.20004600286483765
            ],
            "type" : "VEC3"
        },
        {
            "bufferView" : 5,
            "componentType" : 5126,
            "count" : 3703,
            "type" : "VEC3"
        },
        {
            "bufferView" : 6,
            "componentType" : 5126,
            "count" : 3703,
            "type" : "VEC2"
        },
        {
            "bufferView" : 7,
            "componentType" : 5123,
            "count" : 11076,
            "type" : "SCALAR"
        },
        {
            "bufferView" : 8,
            "componentType" : 5126,
            "count" : 746,
            "max" : [
                0.11078500002622604,
                -0.003169480012729764,
                -0.01476380042731762
            ],
            "min" : [
                -0.11078500002622604,
                -1.094499945640564,
                -0.23755399882793427
            ],
            "type" : "VEC3"
        },
        {
            "bufferView" : 9,
            "componentType" : 5126,
            "count" : 746,
            "type" : "VEC3"
        },
        {
            "bufferView" : 10,
            "componentType" : 5126,
            "count" : 746,
            "type" : "VEC2"
        },
        {
            "bufferView" : 11,
            "componentType" : 5123,
            "count" : 3864,
            "type" : "SCALAR"
        },
        {
            "bufferView" : 12,
            "componentType" : 5126,
            "count" : 3716,
            "max" : [
                0.12617699801921844,
                -1.094539999961853,
                1.80215993168531e-05
            ],
            "min" : [
                -0.12617699801921844,
                -1.6600099802017212,
                -0.2523359954357147
            ],
            "type" : "VEC3"
        },
        {
            "bufferView" : 13,
            "componentType" : 5126,
            "count" : 3716,
            "type" : "VEC3"
        },
        {
            "bufferView" : 14,
            "componentType" : 5126,
            "count" : 3716,
            "type" : "VEC2"
        },
        {
            "bufferView" : 15,
            "componentType" : 5123,
            "count" : 14640,
            "type" : "SCALAR"
        }
    ],
    "bufferViews" : [
        {
            "buffer" : 0,
            "byteLength" : 32016,
            "byteOffset" : 0
        },
        {
            "buffer" : 0,
            "byteLength" : 32016,
            "byteOffset" : 32016
        },
        {
            "buffer" : 0,
            "byteLength" : 21344,
            "byteOffset" : 64032
        },
        {
            "buffer" : 0,
            "byteLength" : 15960,
            "byteOffset" : 85376
        },
        {
            "buffer" : 0,
            "byteLength" : 44436,
            "byteOffset" : 101336
        },
        {
            "buffer" : 0,
            "byteLength" : 44436,
            "byteOffset" : 145772
        },
        {
            "buffer" : 0,
            "byteLength" : 29624,
            "byteOffset" : 190208
        },
        {
            "buffer" : 0,
            "byteLength" : 22152,
            "byteOffset" : 219832
        },
        {
            "buffer" : 0,
            "byteLength" : 8952,
            "byteOffset" : 241984
        },
        {
            "buffer" : 0,
            "byteLength" : 8952,
            "byteOffset" : 250936
        },
        {
            "buffer" : 0,
            "byteLength" : 5968,
            "byteOffset" : 259888
        },
        {
            "buffer" : 0,
            "byteLength" : 7728,
            "byteOffset" : 265856
        },
        {
            "buffer" : 0,
            "byteLength" : 44592,
            "byteOffset" : 273584
        },
        {
            "buffer" : 0,
            "byteLength" : 44592,
            "byteOffset" : 318176
        },
        {
            "buffer" : 0,
            "byteLength" : 29728,
            "byteOffset" : 362768
        },
        {
            "buffer" : 0,
            "byteLength" : 29280,
            "byteOffset" : 392496
        }
    ],
    "buffers" : [
        {
            "byteLength" : 421776,
            "uri" : "data:application/octet-stream;base64,"
        }
    ]
}
