{
    "asset" : {
        "generator" : "Khronos glTF Blender I/O v1.7.33",
        "version" : "2.0"
    },
    "scene" : 0,
    "scenes" : [
        {
            "name" : "Scene",
            "nodes" : [
                0,
                1
            ]
        }
    ],
    "nodes" : [
        {
            "name" : "300_fuel_tank",
            "rotation" : [
                0.7071068286895752,
                0,
                0,
                0.7071067094802856
            ],
            "scale" : [
                0.012457016855478287,
                0.012457016855478287,
                0.012457016855478287
            ]
        },
        {
            "mesh" : 0,
            "name" : "Revolve",
            "rotation" : [
                0,
                0.7071067094802856,
                -0.7071068286895752,
                -1.1520230458472724e-07
            ],
            "scale" : [
                0.012457016855478287,
                0.012457016855478287,
                0.012457016855478287
            ]
        }
    ],
    "materials" : [
        {
            "doubleSided" : true,
            "name" : "color_cccccc",
            "pbrMetallicRoughness" : {
                "baseColorFactor" : [
                    0.800000011920929,
                    0.800000011920929,
                    0.800000011920929,
                    1
                ],
                "metallicFactor" : 0
            }
        }
    ],
    "meshes" : [
        {
            "name" : "Revolve",
            "primitives" : [
                {
                    "attributes" : {
                        "POSITION" : 0,
                        "NORMAL" : 1
                    },
                    "indices" : 2,
                    "material" : 0
                }
            ]
        }
    ],
    "accessors" : [
        {
            "bufferView" : 0,
            "componentType" : 5126,
            "count" : 36676,
            "max" : [
                227.8760986328125,
                34.27784729003906,
                34.24140167236328
            ],
            "min" : [
                -315.2521057128906,
                -34.27784729003906,
                -34.290000915527344
            ],
            "type" : "VEC3"
        },
        {
            "bufferView" : 1,
            "componentType" : 5126,
            "count" : 36676,
            "type" : "VEC3"
        },
        {
            "bufferView" : 2,
            "componentType" : 5123,
            "count" : 36780,
            "type" : "SCALAR"
        }
    ],
    "bufferViews" : [
        {
            "buffer" : 0,
            "byteLength" : 440112,
            "byteOffset" : 0
        },
        {
            "buffer" : 0,
            "byteLength" : 440112,
            "byteOffset" : 440112
        },
        {
            "buffer" : 0,
            "byteLength" : 73560,
            "byteOffset" : 880224
        }
    ],
    "buffers" : [
        {
            "byteLength" : 953784,
            "uri" : "data:application/octet-stream;base64,"
        }
    ]
}
