{
    "asset" : {
        "generator" : "Khronos glTF Blender I/O v1.7.33",
        "version" : "2.0"
    },
    "scene" : 0,
    "scenes" : [
        {
            "name" : "Scene",
            "nodes" : [
                0,
                1,
                2,
                3,
                4,
                5,
                6,
                7,
                8
            ]
        }
    ],
    "nodes" : [
        {
            "mesh" : 0,
            "name" : "Cube.007",
            "rotation" : [
                -0.2706705629825592,
                -0.26859405636787415,
                0.6535672545433044,
                -0.6537924408912659
            ],
            "scale" : [
                -0.01772388443350792,
                0.91527259349823,
                0.8439685106277466
            ],
            "translation" : [
                -2.7676217555999756,
                -0.6706032156944275,
                0.6786489486694336
            ]
        },
        {
            "mesh" : 0,
            "name" : "Cube.006",
            "rotation" : [
                -0.6535668969154358,
                -0.6537927985191345,
                -0.2706698477268219,
                0.268594890832901
            ],
            "scale" : [
                -0.01772388443350792,
                0.91527259349823,
                0.8439685106277466
            ],
            "translation" : [
                -2.762680768966675,
                0.6732749938964844,
                -0.6731899380683899
            ]
        },
        {
            "mesh" : 0,
            "name" : "Cube.005",
            "rotation" : [
                -0.27074819803237915,
                -0.27237656712532043,
                -0.6535345911979675,
                0.6522261500358582
            ],
            "scale" : [
                -0.01772388443350792,
                0.9152724742889404,
                0.843968391418457
            ],
            "translation" : [
                -2.766498327255249,
                0.677259087562561,
                0.6746676564216614
            ]
        },
        {
            "mesh" : 0,
            "name" : "Cube.004",
            "rotation" : [
                -0.6535344123840332,
                -0.6522265076637268,
                0.27074795961380005,
                -0.27237647771835327
            ],
            "scale" : [
                -0.01772388443350792,
                0.9152724742889404,
                0.843968391418457
            ],
            "translation" : [
                -2.763803243637085,
                -0.674587607383728,
                -0.6692085862159729
            ]
        },
        {
            "mesh" : 1,
            "name" : "Cube.003",
            "rotation" : [
                -0.6535344123840332,
                -0.6522265076637268,
                0.27074795961380005,
                -0.27237647771835327
            ],
            "scale" : [
                -0.01772388443350792,
                0.9152724742889404,
                0.843968391418457
            ],
            "translation" : [
                2.384014844894409,
                -0.6788341999053955,
                -0.6546104550361633
            ]
        },
        {
            "mesh" : 1,
            "name" : "Cube.002",
            "rotation" : [
                -0.27074819803237915,
                -0.27237656712532043,
                -0.6535345911979675,
                0.6522261500358582
            ],
            "scale" : [
                -0.01772388443350792,
                0.9152724742889404,
                0.843968391418457
            ],
            "translation" : [
                2.3813202381134033,
                0.673012375831604,
                0.6892656683921814
            ]
        },
        {
            "mesh" : 1,
            "name" : "Cube.001",
            "rotation" : [
                -0.6535668969154358,
                -0.6537927985191345,
                -0.2706698477268219,
                0.268594890832901
            ],
            "scale" : [
                -0.01772388443350792,
                0.91527259349823,
                0.8439685106277466
            ],
            "translation" : [
                2.385138750076294,
                0.6690279245376587,
                -0.6585919260978699
            ]
        },
        {
            "mesh" : 1,
            "name" : "Cube",
            "rotation" : [
                -0.2706705629825592,
                -0.26859405636787415,
                0.6535672545433044,
                -0.6537924408912659
            ],
            "scale" : [
                -0.01772388443350792,
                0.91527259349823,
                0.8439685106277466
            ],
            "translation" : [
                2.380197286605835,
                -0.6748501658439636,
                0.6932467222213745
            ]
        },
        {
            "mesh" : 2,
            "name" : "Cylinder",
            "rotation" : [
                -0.2706705629825592,
                -0.26859405636787415,
                0.6535672545433044,
                -0.6537924408912659
            ],
            "scale" : [
                0.3737204968929291,
                5.308846473693848,
                0.3737204968929291
            ],
            "translation" : [
                1.5912810564041138,
                0.0010780291631817818,
                0.011727130971848965
            ]
        }
    ],
    "materials" : [
        {
            "doubleSided" : true,
            "name" : "Material.001",
            "pbrMetallicRoughness" : {
                "baseColorFactor" : [
                    0.800000011920929,
                    0.800000011920929,
                    0.800000011920929,
                    1
                ],
                "metallicFactor" : 0,
                "roughnessFactor" : 0.5
            }
        }
    ],
    "meshes" : [
        {
            "name" : "Cube.001",
            "primitives" : [
                {
                    "attributes" : {
                        "POSITION" : 0,
                        "NORMAL" : 1,
                        "TEXCOORD_0" : 2
                    },
                    "indices" : 3,
                    "material" : 0
                }
            ]
        },
        {
            "name" : "Cube.002",
            "primitives" : [
                {
                    "attributes" : {
                        "POSITION" : 4,
                        "NORMAL" : 5,
                        "TEXCOORD_0" : 6
                    },
                    "indices" : 7,
                    "material" : 0
                }
            ]
        },
        {
            "name" : "Cylinder",
            "primitives" : [
                {
                    "attributes" : {
                        "POSITION" : 8,
                        "NORMAL" : 9,
                        "TEXCOORD_0" : 10
                    },
                    "indices" : 11,
                    "material" : 0
                }
            ]
        }
    ],
    "accessors" : [
        {
            "bufferView" : 0,
            "componentType" : 5126,
            "count" : 34,
            "max" : [
                1,
                0.6937191486358643,
                0.04295176640152931
            ],
            "min" : [
                -1.0000004768371582,
                -1.0008107423782349,
                -0.8190780878067017
            ],
            "type" : "VEC3"
        },
        {
            "bufferView" : 1,
            "componentType" : 5126,
            "count" : 34,
            "type" : "VEC3"
        },
        {
            "bufferView" : 2,
            "componentType" : 5126,
            "count" : 34,
            "type" : "VEC2"
        },
        {
            "bufferView" : 3,
            "componentType" : 5123,
            "count" : 36,
            "type" : "SCALAR"
        },
        {
            "bufferView" : 4,
            "componentType" : 5126,
            "count" : 132,
            "max" : [
                3.0845565795898438,
                1.0308752059936523,
                0.7156260013580322
            ],
            "min" : [
                -2.7906627655029297,
                -1.629335880279541,
                -0.7156258821487427
            ],
            "type" : "VEC3"
        },
        {
            "bufferView" : 5,
            "componentType" : 5126,
            "count" : 132,
            "type" : "VEC3"
        },
        {
            "bufferView" : 6,
            "componentType" : 5126,
            "count" : 132,
            "type" : "VEC2"
        },
        {
            "bufferView" : 7,
            "componentType" : 5123,
            "count" : 132,
            "type" : "SCALAR"
        },
        {
            "bufferView" : 8,
            "componentType" : 5126,
            "count" : 133,
            "max" : [
                0.9937121868133545,
                1.2309304475784302,
                0.9937124252319336
            ],
            "min" : [
                -0.9937121868133545,
                -1.000218391418457,
                -0.9937125444412231
            ],
            "type" : "VEC3"
        },
        {
            "bufferView" : 9,
            "componentType" : 5126,
            "count" : 133,
            "type" : "VEC3"
        },
        {
            "bufferView" : 10,
            "componentType" : 5126,
            "count" : 133,
            "type" : "VEC2"
        },
        {
            "bufferView" : 11,
            "componentType" : 5123,
            "count" : 582,
            "type" : "SCALAR"
        }
    ],
    "bufferViews" : [
        {
            "buffer" : 0,
            "byteLength" : 408,
            "byteOffset" : 0
        },
        {
            "buffer" : 0,
            "byteLength" : 408,
            "byteOffset" : 408
        },
        {
            "buffer" : 0,
            "byteLength" : 272,
            "byteOffset" : 816
        },
        {
            "buffer" : 0,
            "byteLength" : 72,
            "byteOffset" : 1088
        },
        {
            "buffer" : 0,
            "byteLength" : 1584,
            "byteOffset" : 1160
        },
        {
            "buffer" : 0,
            "byteLength" : 1584,
            "byteOffset" : 2744
        },
        {
            "buffer" : 0,
            "byteLength" : 1056,
            "byteOffset" : 4328
        },
        {
            "buffer" : 0,
            "byteLength" : 264,
            "byteOffset" : 5384
        },
        {
            "buffer" : 0,
            "byteLength" : 1596,
            "byteOffset" : 5648
        },
        {
            "buffer" : 0,
            "byteLength" : 1596,
            "byteOffset" : 7244
        },
        {
            "buffer" : 0,
            "byteLength" : 1064,
            "byteOffset" : 8840
        },
        {
            "buffer" : 0,
            "byteLength" : 1164,
            "byteOffset" : 9904
        }
    ],
    "buffers" : [
        {
            "byteLength" : 11068,
            "uri" : "data:application/octet-stream;base64,"
        }
    ]
}
