{
  "accessors": [
    {
      "bufferView": 2,
      "componentType": 5126,
      "count": 63667,
      "max": [
        1.1177119016647339,
        2.4310803413391113,
        0.51862043142318726
      ],
      "min": [
        -1.1177119016647339,
        -0.70307576656341553,
        -0.15592139959335327
      ],
      "type": "VEC3"
    },
    {
      "bufferView": 2,
      "byteOffset": 764004,
      "componentType": 5126,
      "count": 63667,
      "max": [
        1,
        0.99332356452941895,
        1
      ],
      "min": [
        -1,
        -0.98234951496124268,
        -0.99998217821121216
      ],
      "type": "VEC3"
    },
    {
      "bufferView": 1,
      "componentType": 5126,
      "count": 63667,
      "max": [
        0.99999994039535522,
        1.0000001192092896
      ],
      "min": [
        -5.8207660913467407e-11,
        0
      ],
      "type": "VEC2"
    },
    {
      "bufferView": 0,
      "componentType": 5125,
      "count": 95808,
      "max": [
        63666
      ],
      "min": [
        0
      ],
      "type": "SCALAR"
    },
    {
      "bufferView": 2,
      "byteOffset": 1528008,
      "componentType": 5126,
      "count": 1600,
      "max": [
        0.089389964938163757,
        0.34628137946128845,
        0.23558551073074341
      ],
      "min": [
        -0.089389950037002563,
        -0.34276270866394043,
        0.10764395445585251
      ],
      "type": "VEC3"
    },
    {
      "bufferView": 2,
      "byteOffset": 1547208,
      "componentType": 5126,
      "count": 1600,
      "max": [
        0.91572213172912598,
        0.38223320245742798,
        -0.39193940162658691
      ],
      "min": [
        -0.91572195291519165,
        -0.20730188488960266,
        -0.92106503248214722
      ],
      "type": "VEC3"
    },
    {
      "bufferView": 1,
      "byteOffset": 509336,
      "componentType": 5126,
      "count": 1600,
      "max": [
        0.84422683715820312,
        0.57582610845565796
      ],
      "min": [
        0.075062878429889679,
        0.09470289945602417
      ],
      "type": "VEC2"
    },
    {
      "bufferView": 0,
      "byteOffset": 383232,
      "componentType": 5125,
      "count": 2400,
      "max": [
        1599
      ],
      "min": [
        0
      ],
      "type": "SCALAR"
    },
    {
      "bufferView": 2,
      "byteOffset": 1566408,
      "componentType": 5126,
      "count": 15296,
      "max": [
        0.30037951469421387,
        2.0830709934234619,
        0.044194012880325317
      ],
      "min": [
        -0.3013119101524353,
        0.12499763816595078,
        -0.13932989537715912
      ],
      "type": "VEC3"
    },
    {
      "bufferView": 2,
      "byteOffset": 1749960,
      "componentType": 5126,
      "count": 15296,
      "max": [
        0.99999874830245972,
        0.12106792628765106,
        0.99999946355819702
      ],
      "min": [
        -0.99999868869781494,
        -0.99488711357116699,
        -0.99998515844345093
      ],
      "type": "VEC3"
    },
    {
      "bufferView": 1,
      "byteOffset": 522136,
      "componentType": 5126,
      "count": 15296,
      "max": [
        0.95777225494384766,
        0.94018363952636719
      ],
      "min": [
        0.12513624131679535,
        0.19003114104270935
      ],
      "type": "VEC2"
    },
    {
      "bufferView": 0,
      "byteOffset": 392832,
      "componentType": 5125,
      "count": 22944,
      "max": [
        15295
      ],
      "min": [
        0
      ],
      "type": "SCALAR"
    }
  ],
  "asset": {
    "extras": {
      "author": "Abg Asyraaf (https://sketchfab.com/MCKillerZ1)",
      "license": "CC-BY-4.0 (http://creativecommons.org/licenses/by/4.0/)",
      "source": "https://sketchfab.com/3d-models/f22-raptor-f7e8ca7bd6ee404a9653aa3af0c25b81",
      "title": "F22 Raptor"
    },
    "generator": "Sketchfab-7.72.0",
    "version": "2.0"
  },
  "bufferViews": [
    {
      "buffer": 0,
      "byteLength": 484608,
      "byteOffset": 0,
      "name": "floatBufferViews",
      "target": 34963
    },
    {
      "buffer": 0,
      "byteLength": 644504,
      "byteOffset": 484608,
      "byteStride": 8,
      "name": "floatBufferViews",
      "target": 34962
    },
    {
      "buffer": 0,
      "byteLength": 1933512,
      "byteOffset": 1129112,
      "byteStride": 12,
      "name": "floatBufferViews",
      "target": 34962
    }
  ],
  "buffers": [
    {
      "byteLength": 3062624,
      "uri": "scene.bin"
    }
  ],
  "images": [
    {
      "uri": "textures/Body_baseColor.jpeg"
    }
  ],
  "materials": [
    {
      "doubleSided": true,
      "name": "Body",
      "pbrMetallicRoughness": {
        "baseColorFactor": [
          1,
          1,
          1,
          1
        ],
        "baseColorTexture": {
          "index": 0,
          "texCoord": 0
        },
        "metallicFactor": 0,
        "roughnessFactor": 0.25
      }
    },
    {
      "doubleSided": true,
      "emissiveFactor": [
        0,
        0,
        0
      ],
      "name": "Glass",
      "pbrMetallicRoughness": {
        "baseColorFactor": [
          0.0038175728692805989,
          0.0038175728692805989,
          0.0038175728692805989,
          1
        ],
        "metallicFactor": 0,
        "roughnessFactor": 0.41901676829268297
      }
    },
    {
      "doubleSided": true,
      "emissiveFactor": [
        0,
        0,
        0
      ],
      "name": "Metal",
      "pbrMetallicRoughness": {
        "baseColorFactor": [
          0.011011230500289839,
          0.011011230500289839,
          0.011011230500289839,
          1
        ],
        "metallicFactor": 0,
        "roughnessFactor": 0.1788854381999832
      }
    }
  ],
  "meshes": [
    {
      "name": "Hi Poly.001_Body_0",
      "primitives": [
        {
          "attributes": {
            "NORMAL": 1,
            "POSITION": 0,
            "TEXCOORD_0": 2
          },
          "indices": 3,
          "material": 0,
          "mode": 4
        }
      ]
    },
    {
      "name": "Hi Poly.001_Glass_0",
      "primitives": [
        {
          "attributes": {
            "NORMAL": 5,
            "POSITION": 4,
            "TEXCOORD_0": 6
          },
          "indices": 7,
          "material": 1,
          "mode": 4
        }
      ]
    },
    {
      "name": "Hi Poly.001_Metal_0",
      "primitives": [
        {
          "attributes": {
            "NORMAL": 9,
            "POSITION": 8,
            "TEXCOORD_0": 10
          },
          "indices": 11,
          "material": 2,
          "mode": 4
        }
      ]
    }
  ],
  "nodes": [
    {
      "children": [
        1
      ],
      "name": "RootNode (gltf orientation matrix)",
      "rotation": [
        -0.70710678118654746,
        -0,
        -0,
        0.70710678118654757
      ]
    },
    {
      "children": [
        2
      ],
      "name": "RootNode (model correction matrix)"
    },
    {
      "children": [
        3
      ],
      "matrix": [
        1,
        0,
        0,
        0,
        0,
        0,
        1,
        0,
        0,
        -1,
        0,
        0,
        0,
        0,
        0,
        1
      ],
      "name": "31e7d1e9fcae40f087cda1c7a8bff66a.fbx"
    },
    {
      "children": [
        4
      ],
      "name": "RootNode"
    },
    {
      "children": [
        5,
        6,
        7
      ],
      "matrix": [
        100,
        0,
        0,
        0,
        0,
        -1.6292067939183141e-05,
        -99.999999999998678,
        0,
        0,
        99.999999999998678,
        -1.6292067939183141e-05,
        0,
        0,
        0,
        0,
        1
      ],
      "name": "Hi Poly.001"
    },
    {
      "mesh": 0,
      "name": "Hi Poly.001_Body_0"
    },
    {
      "mesh": 1,
      "name": "Hi Poly.001_Glass_0"
    },
    {
      "mesh": 2,
      "name": "Hi Poly.001_Metal_0"
    }
  ],
  "samplers": [
    {
      "magFilter": 9729,
      "minFilter": 9987,
      "wrapS": 10497,
      "wrapT": 10497
    }
  ],
  "scene": 0,
  "scenes": [
    {
      "name": "OSG_Scene",
      "nodes": [
        0
      ]
    }
  ],
  "textures": [
    {
      "sampler": 0,
      "source": 0
    }
  ]
}

